#N canvas 1920 68 1366 700 12;
#X obj 24 518 freeverb~;
#X msg 334 250 roomsize \$1;
#X msg 329 295 damping \$1;
#X msg 333 327 wet \$1;
#X msg 332 387 dry \$1;
#X msg 333 435 freeze \$1;
#X msg 333 498 bypass \$1;
#X obj 333 418 tgl 15 0 empty empty empty 17 7 0 10 -262144 -1 -1 0
1;
#X obj 333 467 tgl 20 0 empty empty empty 17 7 0 50 -258113 -1 -1 0
1;
#X obj 1417 148 hsl 128 15 0 1 0 0 empty empty empty -2 -8 0 10 -4032
-1 -1 5500 1;
#X floatatom 1414 167 5 0 0 0 - - -;
#X obj 332 359 expr 1-$f1;
#X obj 762 159 hsl 128 15 0 1 0 0 empty empty empty -2 -8 0 10 -159808
-1 -1 5700 1;
#X obj 1043 154 hsl 128 15 0 1 0 0 empty empty empty -2 -8 0 10 -260097
-1 -1 8200 1;
#X floatatom 1040 177 5 0 0 0 - - -;
#X floatatom 759 181 5 0 0 0 - - -;
#X text 1187 154 Damping level;
#X text 899 155 Roomsize;
#X text 1556 145 Wet signal;
#X obj 1292 733 osc/packOSC;
#X obj 1226 776 mrpeach/net/udpsend;
#X text 1403 573 <-- connect to multicast addres;
#X text 1427 600 <-- close connection;
#X text 1429 706 <-- prepare OSC message;
#X text 1380 733 <-- convert Pure Data to OSC;
#X text 1372 773 <-- send data via network \, in UDP packet \, using
mrpeach library;
#X floatatom 1226 825 5 0 1 0 - - -;
#X text 1263 826 <-- connection status;
#X obj 1295 671 hsl 128 15 0 100 0 0 empty empty empty -2 -8 0 10 -159808
-1 -1 0 1;
#X obj 759 31 osc/unpackOSC;
#X obj 759 76 osc/routeOSC /roomsize;
#X obj 1040 30 osc/unpackOSC;
#X obj 1040 74 osc/routeOSC /damping;
#X obj 1414 29 osc/unpackOSC;
#X obj 1414 73 osc/routeOSC /wet;
#X obj 526 402 osc/unpackOSC;
#X obj 526 376 mrpeach/net/udpreceive 224.0.0.0 40000;
#X obj 526 447 osc/routeOSC /stop;
#X obj 23 620 mrpeach/net/udpsend~ 2;
#X floatatom 23 651 5 0 0 0 - - -;
#X text 534 557 <-- EDIT;
#X text 1270 534 OSC CONTROL EXAMPLE (DELETE);
#X msg 325 559 connect 239.255.255.250 3000;
#X msg 325 587 disconnect 239.255.255.250 3000;
#X obj 25 236 *~;
#X obj 165 162 hsl 128 15 0 100 0 0 empty empty empty -2 -8 0 10 -4034
-1 -1 0 1;
#X obj 162 29 osc/unpackOSC;
#X floatatom 162 217 5 0 100 0 - - -;
#X obj 162 187 int;
#X obj 162 75 osc/routeOSC /volumeGuitar;
#X obj 162 266 ginga_guitar;
#X text 101 268 Lib-->;
#X msg 22 35 \; pd dsp 1;
#X obj 22 3 loadbang;
#X obj 24 113 adc~ 2;
#X obj 162 3 mrpeach/net/udpreceive 224.0.0.0 20000;
#X obj 759 5 mrpeach/net/udpreceive 224.0.0.0 20000;
#X obj 1040 4 mrpeach/net/udpreceive 224.0.0.0 20000;
#X obj 1414 3 mrpeach/net/udpreceive 224.0.0.0 20000;
#X msg 465 36 connect 192.168.0.101 10000;
#X msg 483 69 disconnect 192.168.0.101 10000;
#X msg 465 115 send /volumeGuitar \$1;
#X obj 465 140 osc/packOSC;
#X obj 465 165 mrpeach/net/udpsend;
#X floatatom 465 190 5 0 0 0 - - -;
#X obj 464 7 loadbang;
#X obj 895 298 osc/unpackOSC;
#X obj 895 343 osc/routeOSC /roomsize;
#X obj 1194 297 osc/unpackOSC;
#X obj 1194 342 osc/routeOSC /damping;
#X obj 1491 296 osc/unpackOSC;
#X obj 1491 270 mrpeach/net/udpreceive 224.0.0.0 40000;
#X obj 895 272 mrpeach/net/udpreceive 224.0.0.0 20000;
#X obj 1194 271 mrpeach/net/udpreceive 224.0.0.0 20000;
#X msg 1226 575 connect 224.0.0.0 20000;
#X msg 1234 599 disconnect 224.0.0.0 20000;
#X msg 1292 704 send /roomsize \$1;
#X obj 1491 341 osc/routeOSC /wet;
#X connect 0 0 38 0;
#X connect 1 0 0 0;
#X connect 2 0 0 0;
#X connect 3 0 0 0;
#X connect 4 0 0 0;
#X connect 5 0 0 0;
#X connect 6 0 0 0;
#X connect 7 0 5 0;
#X connect 8 0 6 0;
#X connect 9 0 10 0;
#X connect 9 0 3 0;
#X connect 9 0 11 0;
#X connect 11 0 4 0;
#X connect 12 0 1 0;
#X connect 12 0 15 0;
#X connect 13 0 2 0;
#X connect 13 0 14 0;
#X connect 19 0 20 0;
#X connect 20 0 26 0;
#X connect 28 0 76 0;
#X connect 29 0 30 0;
#X connect 30 0 12 0;
#X connect 31 0 32 0;
#X connect 32 0 13 0;
#X connect 33 0 34 0;
#X connect 34 0 9 0;
#X connect 35 0 37 0;
#X connect 36 0 35 0;
#X connect 37 0 8 0;
#X connect 38 0 39 0;
#X connect 42 0 38 0;
#X connect 43 0 38 0;
#X connect 44 0 0 0;
#X connect 45 0 48 0;
#X connect 45 0 61 0;
#X connect 46 0 49 0;
#X connect 47 0 44 1;
#X connect 47 0 50 0;
#X connect 48 0 47 0;
#X connect 49 0 45 0;
#X connect 53 0 52 0;
#X connect 54 0 44 0;
#X connect 55 0 46 0;
#X connect 56 0 29 0;
#X connect 57 0 31 0;
#X connect 58 0 33 0;
#X connect 59 0 63 0;
#X connect 60 0 63 0;
#X connect 61 0 62 0;
#X connect 62 0 63 0;
#X connect 63 0 64 0;
#X connect 65 0 59 0;
#X connect 66 0 67 0;
#X connect 67 0 12 0;
#X connect 68 0 69 0;
#X connect 69 0 13 0;
#X connect 70 0 77 0;
#X connect 71 0 70 0;
#X connect 72 0 66 0;
#X connect 73 0 68 0;
#X connect 74 0 20 0;
#X connect 75 0 20 0;
#X connect 76 0 19 0;
#X connect 77 0 9 0;
