#N canvas 433 123 1204 827 12;
#X obj 12 64 dac~;
#X obj 13 20 mrpeach/net/udpreceive~ 3001 2 239.255.255.250;
#X obj 584 176 vsl 15 128 0 100 0 0 empty empty empty 0 -9 0 10 -232576
-1 -1 0 1;
#X obj 584 71 osc/unpackOSC;
#X obj 584 115 osc/routeOSC /light;
#X obj 584 45 mrpeach/net/udpreceive 224.0.0.0 20000;
#X msg 922 44 connect 192.168.0.101 10000;
#X msg 922 71 disconnect 192.168.0.101 10000;
#X msg 922 126 send /light \$1;
#X obj 922 151 osc/packOSC;
#X obj 922 176 mrpeach/net/udpsend;
#X floatatom 922 201 5 0 0 0 - - -;
#X obj 922 8 loadbang;
#X obj 17 353 tgl 15 0 empty empty empty 17 7 0 10 -258113 -1 -1 0
1;
#X msg 15 223 \; pd dsp 1;
#X obj 15 160 loadbang;
#X obj 68 344 print;
#X obj 15 196 tgl 15 0 empty empty empty 17 7 0 10 -4034 -1 -1 1 1
;
#X msg 17 386 \; pd dsp 0;
#X obj 151 206 print;
#X obj 151 174 r audio_on1;
#X obj 17 308 r audio_off1;
#X text 254 175 <-- Resume;
#X text 140 308 <-- Pause;
#X floatatom 317 429 5 0 100 0 - - -;
#X obj 317 400 netreceive -u 1350;
#X obj 317 504 route float;
#X obj 317 538 s volumeMic1;
#X obj 766 513 hsl 128 15 0 100 0 0 empty empty empty -2 -8 0 10 -4034
-1 -1 0 1;
#X floatatom 763 460 5 0 100 0 - - -;
#X obj 763 423 int;
#X obj 763 393 r volumeMic1;
#X connect 1 0 0 0;
#X connect 1 0 0 1;
#X connect 2 0 8 0;
#X connect 3 0 4 0;
#X connect 4 0 2 0;
#X connect 5 0 3 0;
#X connect 6 0 10 0;
#X connect 7 0 10 0;
#X connect 8 0 9 0;
#X connect 9 0 10 0;
#X connect 10 0 11 0;
#X connect 12 0 6 0;
#X connect 13 0 18 0;
#X connect 15 0 17 0;
#X connect 17 0 14 0;
#X connect 20 0 19 0;
#X connect 20 0 17 0;
#X connect 21 0 16 0;
#X connect 21 0 13 0;
#X connect 24 0 26 0;
#X connect 25 0 24 0;
#X connect 26 0 27 0;
#X connect 29 0 28 0;
#X connect 30 0 29 0;
#X connect 31 0 30 0;
