#N canvas 1920 68 1366 700 12;
#X obj 199 193 *~;
#X obj 199 283 mrpeach/net/udpsend~ 2;
#X msg 198 57 connect 239.255.255.250 3001;
#X msg 198 83 disconnect 239.255.255.250 3001;
#X obj 198 20 loadbang;
#X floatatom 199 319 5 0 0 0 - - -;
#X msg 14 45 \; pd dsp 1;
#X obj 14 13 loadbang;
#X obj 506 126 hsl 128 15 0 100 0 0 empty empty empty -2 -8 0 10 -4034
-1 -1 8509 1;
#X floatatom 503 174 5 0 0 0 - - -;
#X obj 503 146 int;
#X floatatom 194 449 5 0 500 0 - - -;
#X obj 194 420 netreceive -u 1350;
#X obj 194 480 route float;
#X floatatom 503 91 5 0 500 0 - - -;
#X obj 503 54 int;
#X text 329 420 <-- Recebe valor do NCL;
#X text 584 22 <-- Aplicação do valor recebido pelo NCL;
#X obj 194 514 s volumeMic;
#X obj 503 24 r volumeMic;
#X floatatom 558 454 5 0 500 0 - - -;
#X obj 558 484 route float;
#X obj 558 425 netreceive -u 1351;
#X obj 558 518 s volumeinit;
#X text 694 425 <-- Valor de inicialização;
#X floatatom 885 107 5 0 500 0 - - -;
#X obj 885 55 int;
#X obj 885 25 r volumeinit;
#X msg 1009 58 100;
#X msg 1009 87 \$1;
#X obj 1009 27 loadbang;
#X obj 503 278 ginga_mic;
#X obj 978 250 hsl 128 15 0 100 0 0 empty empty empty -2 -8 0 10 -4160
-1 -1 4400 1;
#X text 1110 246 <-- reverb;
#X floatatom 975 278 5 0 0 0 - - -;
#X obj 981 339 rev2~ 100 90 3000 20;
#X obj 199 366 mrpeach/net/udpreceive~ 239.255.255.250 3001 2;
#X obj 62 417 dac~;
#X obj 975 170 osc/unpackOSC;
#X obj 975 216 osc/routeOSC /reverb;
#X obj 198 122 adc~ 1;
#X obj 975 144 mrpeach/net/udpreceive 224.0.0.0 20000;
#X obj 1263 169 osc/unpackOSC;
#X obj 1263 143 mrpeach/net/udpreceive 224.0.0.0 20000;
#X obj 1263 215 osc/routeOSC /volumeMic;
#X msg 1061 476 connect 192.168.0.101 10000;
#X msg 1061 514 disconnect 192.168.0.101 10000;
#X obj 1063 562 hsl 128 15 0 100 0 0 empty empty empty -2 -8 0 10 -4034
-1 -1 8509 1;
#X msg 1060 582 send /volumeMic \$1;
#X obj 1060 607 osc/packOSC;
#X obj 1060 632 mrpeach/net/udpsend;
#X floatatom 1060 657 5 0 0 0 - - -;
#X obj 1061 436 loadbang;
#X msg 1319 465 connect 192.168.0.101 10000;
#X msg 1319 503 disconnect 192.168.0.101 10000;
#X obj 1321 551 hsl 128 15 0 100 0 0 empty empty empty -2 -8 0 10 -4160
-1 -1 4400 1;
#X obj 1318 596 osc/packOSC;
#X obj 1318 621 mrpeach/net/udpsend;
#X floatatom 1318 646 5 0 0 0 - - -;
#X obj 1319 425 loadbang;
#X msg 1318 571 send /reverb \$1;
#X text 958 477 TouchOSC -->;
#X obj 686 535 osc/unpackOSC;
#X obj 686 509 mrpeach/net/udpreceive 224.0.0.0 20000;
#X obj 686 580 osc/routeOSC /volumeMic;
#X connect 0 0 1 0;
#X connect 1 0 5 0;
#X connect 2 0 1 0;
#X connect 3 0 1 0;
#X connect 4 0 2 0;
#X connect 7 0 6 0;
#X connect 8 0 10 0;
#X connect 9 0 0 1;
#X connect 9 0 31 0;
#X connect 10 0 9 0;
#X connect 11 0 13 0;
#X connect 12 0 11 0;
#X connect 13 0 18 0;
#X connect 14 0 8 0;
#X connect 15 0 14 0;
#X connect 19 0 15 0;
#X connect 20 0 21 0;
#X connect 21 0 23 0;
#X connect 22 0 20 0;
#X connect 25 0 8 0;
#X connect 26 0 25 0;
#X connect 27 0 26 0;
#X connect 28 0 29 0;
#X connect 29 0 25 0;
#X connect 30 0 28 0;
#X connect 32 0 34 0;
#X connect 34 0 35 2;
#X connect 34 0 55 0;
#X connect 35 0 0 0;
#X connect 36 0 37 0;
#X connect 36 0 37 1;
#X connect 38 0 39 0;
#X connect 39 0 32 0;
#X connect 40 0 0 0;
#X connect 40 0 35 0;
#X connect 41 0 38 0;
#X connect 42 0 44 0;
#X connect 43 0 42 0;
#X connect 44 0 8 0;
#X connect 45 0 50 0;
#X connect 46 0 50 0;
#X connect 47 0 48 0;
#X connect 48 0 49 0;
#X connect 49 0 50 0;
#X connect 50 0 51 0;
#X connect 52 0 45 0;
#X connect 53 0 57 0;
#X connect 54 0 57 0;
#X connect 55 0 60 0;
#X connect 56 0 57 0;
#X connect 57 0 58 0;
#X connect 59 0 53 0;
#X connect 60 0 56 0;
#X connect 62 0 64 0;
#X connect 63 0 62 0;
#X connect 64 0 47 0;
