#N canvas 0 68 1920 979 12;
#X declare -lib Gem;
#N canvas 0 23 450 300 gemwin 0;
#X obj 132 136 gemwin;
#X obj 67 89 outlet;
#X obj 67 10 inlet;
#X obj 67 41 route create;
#X msg 67 70 set destroy;
#X msg 142 68 set create;
#X msg 132 112 create \, 1;
#X msg 198 112 destroy;
#X obj 287 94 loadbang;
#X msg 294 121 reset \, lighting 0;
#X obj 217 30 loadbang;
#X connect 2 0 3 0;
#X connect 3 0 4 0;
#X connect 3 0 6 0;
#X connect 3 1 5 0;
#X connect 3 1 7 0;
#X connect 4 0 1 0;
#X connect 5 0 1 0;
#X connect 6 0 0 0;
#X connect 7 0 0 0;
#X connect 8 0 9 0;
#X connect 9 0 0 0;
#X connect 10 0 5 0;
#X restore 707 88 pd gemwin;
#X text 691 26 Create window:;
#X obj 21 22 declare -lib Gem;
#X obj 672 870 part_render;
#X msg 598 832 draw line;
#X msg 526 833 draw fill;
#X obj 672 906 rectangle;
#X obj 672 833 rotateXYZ 0 1 0;
#X floatatom 820 803 0 0 0 0 - - -;
#X obj 820 710 t f f;
#X obj 820 772 i;
#X obj 851 772 + 1;
#X obj 881 772 % 360;
#X obj 820 685 tgl 15 0 empty empty empty 17 7 0 10 -262144 -1 -1 1
1;
#X obj 820 740 metro 25;
#X obj 333 94 bng 30 250 50 0 empty empty empty 17 7 0 10 -262144 -1
-1;
#X obj 333 207 line;
#X floatatom 333 244 5 0 0 0 - - -;
#X obj 396 139 del 50;
#X obj 820 661 loadbang;
#X obj 512 195 s beep_off;
#X obj 261 138 s beep_on;
#X obj 451 139 del 2400;
#X obj 880 386 part_color;
#X obj 879 214 part_head;
#X obj 878 117 tgl 15 0 empty empty empty 0 -6 0 8 -262144 -1 -1 1
1;
#X obj 1043 867 part_render;
#X msg 1136 867 draw line;
#X msg 1207 867 draw fill;
#X obj 880 267 part_source 2;
#X obj 878 96 loadbang;
#X obj 880 329 part_killold 5;
#X msg 773 297 5;
#X obj 707 212 bng 15 250 50 0 empty empty empty 17 7 0 10 -262144
-1 -1;
#X obj 809 213 bng 15 250 50 0 empty empty empty 17 7 0 10 -262144
-1 -1;
#X obj 984 328 loadbang;
#X obj 809 186 r beep_on;
#X obj 693 161 r beep_off;
#X msg 732 238 1;
#X obj 1043 905 circle;
#X msg 1056 356 1 1 1;
#X obj 879 139 gemhead;
#X obj 952 508 separator;
#X obj 672 691 scale;
#X obj 880 508 separator;
#X msg 838 238 10;
#X obj 1043 702 scale;
#X obj 1056 539 vsl 15 128 0 1 0 0 empty empty empty 0 -9 0 10 -4032
-1 -1 1270 1;
#X obj 685 538 vsl 15 128 0 1 0 0 empty empty empty 0 -9 0 10 -4160
-1 -1 1270 1;
#X obj 672 731 translateXYZ;
#X obj 880 297 part_velocity blob 0 0 0 0.5;
#X msg 830 297 50;
#X obj 754 771 loadbang;
#X msg 754 801 100;
#X msg 984 356 0.1 0.3 1;
#X obj 879 238 part_size 1.5;
#X obj 913 161 loadbang;
#X msg 913 185 speed 3;
#X obj 1056 431 bng 15 250 50 0 empty empty empty 17 7 0 10 -262144
-1 -1;
#X obj 1135 432 bng 15 250 50 0 empty empty empty 17 7 0 10 -262144
-1 -1;
#X obj 1135 405 r beep_on;
#X msg 396 171 0 500;
#X obj 598 807 loadbang;
#X obj 1136 841 loadbang;
#X obj 512 138 loadbang;
#X obj 1056 488 line;
#X floatatom 1056 510 5 0 0 0 - - -;
#X msg 1056 454 0 100;
#X msg 1135 457 0.1 100;
#X obj 685 433 bng 15 250 50 0 empty empty empty 17 7 0 10 -262144
-1 -1;
#X obj 760 433 bng 15 250 50 0 empty empty empty 17 7 0 10 -262144
-1 -1;
#X obj 760 406 r beep_on;
#X obj 685 490 line;
#X floatatom 685 512 5 0 0 0 - - -;
#X msg 685 456 0 100;
#X msg 760 458 0.1 100;
#X obj 2833 1031 hsl 128 15 0 127 0 0 empty empty empty -2 -8 0 10
-262144 -1 -1 0 1;
#X msg 333 140 1 250;
#X obj 335 64 loadbang;
#X msg 707 55 create;
#X obj 375 522 osc/unpackOSC;
#X obj 375 568 osc/routeOSC /square;
#X obj 1173 544 osc/unpackOSC;
#X obj 1173 590 osc/routeOSC /bubble;
#X obj 1173 518 mrpeach/net/udpreceive 224.0.0.0 20000;
#X obj 375 496 mrpeach/net/udpreceive 224.0.0.0 20000;
#X connect 0 0 79 0;
#X connect 3 0 6 0;
#X connect 4 0 6 0;
#X connect 5 0 6 0;
#X connect 7 0 3 0;
#X connect 8 0 7 3;
#X connect 9 0 14 0;
#X connect 10 0 11 0;
#X connect 10 0 8 0;
#X connect 11 0 12 0;
#X connect 12 0 10 1;
#X connect 13 0 9 0;
#X connect 14 0 10 0;
#X connect 15 0 77 0;
#X connect 15 0 18 0;
#X connect 15 0 21 0;
#X connect 15 0 22 0;
#X connect 16 0 17 0;
#X connect 18 0 61 0;
#X connect 19 0 13 0;
#X connect 22 0 20 0;
#X connect 23 0 44 0;
#X connect 23 0 42 0;
#X connect 24 0 55 0;
#X connect 25 0 41 0;
#X connect 26 0 39 0;
#X connect 27 0 39 0;
#X connect 28 0 39 0;
#X connect 29 0 50 0;
#X connect 30 0 25 0;
#X connect 31 0 23 0;
#X connect 32 0 31 1;
#X connect 33 0 32 0;
#X connect 33 0 38 0;
#X connect 34 0 45 0;
#X connect 34 0 51 0;
#X connect 35 0 40 0;
#X connect 35 0 54 0;
#X connect 36 0 34 0;
#X connect 38 0 29 1;
#X connect 40 0 23 2;
#X connect 41 0 24 0;
#X connect 42 0 46 0;
#X connect 43 0 49 0;
#X connect 44 0 43 0;
#X connect 45 0 29 1;
#X connect 46 0 26 0;
#X connect 47 0 46 1;
#X connect 48 0 43 1;
#X connect 49 0 7 0;
#X connect 50 0 31 0;
#X connect 51 0 31 1;
#X connect 52 0 53 0;
#X connect 53 0 7 1;
#X connect 54 0 23 1;
#X connect 55 0 29 0;
#X connect 56 0 57 0;
#X connect 57 0 24 0;
#X connect 58 0 67 0;
#X connect 59 0 68 0;
#X connect 60 0 59 0;
#X connect 61 0 16 0;
#X connect 62 0 4 0;
#X connect 63 0 27 0;
#X connect 64 0 20 0;
#X connect 65 0 66 0;
#X connect 66 0 47 0;
#X connect 67 0 65 0;
#X connect 68 0 65 0;
#X connect 69 0 74 0;
#X connect 70 0 75 0;
#X connect 71 0 70 0;
#X connect 72 0 73 0;
#X connect 73 0 48 0;
#X connect 74 0 72 0;
#X connect 75 0 72 0;
#X connect 77 0 16 0;
#X connect 78 0 15 0;
#X connect 78 0 79 0;
#X connect 79 0 0 0;
#X connect 80 0 81 0;
#X connect 81 0 48 0;
#X connect 82 0 83 0;
#X connect 83 0 47 0;
#X connect 84 0 82 0;
#X connect 85 0 80 0;
